<mxfile host="app.diagrams.net" modified="2022-08-15T02:37:49.903Z" agent="5.0 (Windows NT 10.0; Win64; x64) AppleWebKit/537.36 (KHTML, like Gecko) Chrome/104.0.0.0 Safari/537.36" etag="DJylgquFUcc48aO2x16r" version="20.2.3" type="github">
  <diagram id="C5RBs43oDa-KdzZeNtuy" name="Page-1">
    <mxGraphModel dx="847" dy="592" grid="1" gridSize="10" guides="1" tooltips="1" connect="1" arrows="1" fold="1" page="1" pageScale="1" pageWidth="827" pageHeight="1169" math="0" shadow="0">
      <root>
        <mxCell id="WIyWlLk6GJQsqaUBKTNV-0" />
        <mxCell id="WIyWlLk6GJQsqaUBKTNV-1" parent="WIyWlLk6GJQsqaUBKTNV-0" />
        <mxCell id="JBzvTZdr12KHgHO6GsRZ-7" style="edgeStyle=orthogonalEdgeStyle;rounded=0;orthogonalLoop=1;jettySize=auto;html=1;entryX=0.5;entryY=0;entryDx=0;entryDy=0;" parent="WIyWlLk6GJQsqaUBKTNV-1" source="JBzvTZdr12KHgHO6GsRZ-0" target="JBzvTZdr12KHgHO6GsRZ-3" edge="1">
          <mxGeometry relative="1" as="geometry" />
        </mxCell>
        <mxCell id="JBzvTZdr12KHgHO6GsRZ-0" value="UE5：GamePlay架构" style="html=1;" parent="WIyWlLk6GJQsqaUBKTNV-1" vertex="1">
          <mxGeometry x="389" y="260" width="150" height="50" as="geometry" />
        </mxCell>
        <mxCell id="JBzvTZdr12KHgHO6GsRZ-3" value="UObject" style="swimlane;fontStyle=1;align=center;verticalAlign=top;childLayout=stackLayout;horizontal=1;startSize=26;horizontalStack=0;resizeParent=1;resizeParentMax=0;resizeLast=0;collapsible=1;marginBottom=0;" parent="WIyWlLk6GJQsqaUBKTNV-1" vertex="1">
          <mxGeometry x="384" y="360" width="160" height="174" as="geometry" />
        </mxCell>
        <mxCell id="JBzvTZdr12KHgHO6GsRZ-4" value="+ GC&#xa;+ MetaData&#xa;+ Reflection&#xa;+ Serialization&#xa;+Editable&#xa;+ Class Default Object&#xa;+ ... ..." style="text;strokeColor=none;fillColor=none;align=left;verticalAlign=top;spacingLeft=4;spacingRight=4;overflow=hidden;rotatable=0;points=[[0,0.5],[1,0.5]];portConstraint=eastwest;" parent="JBzvTZdr12KHgHO6GsRZ-3" vertex="1">
          <mxGeometry y="26" width="160" height="114" as="geometry" />
        </mxCell>
        <mxCell id="JBzvTZdr12KHgHO6GsRZ-5" value="" style="line;strokeWidth=1;fillColor=none;align=left;verticalAlign=middle;spacingTop=-1;spacingLeft=3;spacingRight=3;rotatable=0;labelPosition=right;points=[];portConstraint=eastwest;" parent="JBzvTZdr12KHgHO6GsRZ-3" vertex="1">
          <mxGeometry y="140" width="160" height="8" as="geometry" />
        </mxCell>
        <mxCell id="JBzvTZdr12KHgHO6GsRZ-6" value="  " style="text;strokeColor=none;fillColor=none;align=left;verticalAlign=top;spacingLeft=4;spacingRight=4;overflow=hidden;rotatable=0;points=[[0,0.5],[1,0.5]];portConstraint=eastwest;" parent="JBzvTZdr12KHgHO6GsRZ-3" vertex="1">
          <mxGeometry y="148" width="160" height="26" as="geometry" />
        </mxCell>
        <mxCell id="JBzvTZdr12KHgHO6GsRZ-8" value="" style="endArrow=diamondThin;endFill=0;endSize=24;html=1;rounded=0;entryX=1;entryY=0.5;entryDx=0;entryDy=0;" parent="WIyWlLk6GJQsqaUBKTNV-1" target="JBzvTZdr12KHgHO6GsRZ-4" edge="1">
          <mxGeometry width="160" relative="1" as="geometry">
            <mxPoint x="640" y="443" as="sourcePoint" />
            <mxPoint x="750" y="430" as="targetPoint" />
          </mxGeometry>
        </mxCell>
        <mxCell id="JBzvTZdr12KHgHO6GsRZ-9" value="UClass" style="swimlane;fontStyle=1;align=center;verticalAlign=top;childLayout=stackLayout;horizontal=1;startSize=26;horizontalStack=0;resizeParent=1;resizeParentMax=0;resizeLast=0;collapsible=1;marginBottom=0;" parent="WIyWlLk6GJQsqaUBKTNV-1" vertex="1">
          <mxGeometry x="640" y="405" width="160" height="86" as="geometry" />
        </mxCell>
        <mxCell id="JBzvTZdr12KHgHO6GsRZ-10" value="  " style="text;strokeColor=none;fillColor=none;align=left;verticalAlign=top;spacingLeft=4;spacingRight=4;overflow=hidden;rotatable=0;points=[[0,0.5],[1,0.5]];portConstraint=eastwest;" parent="JBzvTZdr12KHgHO6GsRZ-9" vertex="1">
          <mxGeometry y="26" width="160" height="26" as="geometry" />
        </mxCell>
        <mxCell id="JBzvTZdr12KHgHO6GsRZ-11" value="" style="line;strokeWidth=1;fillColor=none;align=left;verticalAlign=middle;spacingTop=-1;spacingLeft=3;spacingRight=3;rotatable=0;labelPosition=right;points=[];portConstraint=eastwest;" parent="JBzvTZdr12KHgHO6GsRZ-9" vertex="1">
          <mxGeometry y="52" width="160" height="8" as="geometry" />
        </mxCell>
        <mxCell id="JBzvTZdr12KHgHO6GsRZ-12" value="  " style="text;strokeColor=none;fillColor=none;align=left;verticalAlign=top;spacingLeft=4;spacingRight=4;overflow=hidden;rotatable=0;points=[[0,0.5],[1,0.5]];portConstraint=eastwest;" parent="JBzvTZdr12KHgHO6GsRZ-9" vertex="1">
          <mxGeometry y="60" width="160" height="26" as="geometry" />
        </mxCell>
        <mxCell id="JBzvTZdr12KHgHO6GsRZ-17" style="edgeStyle=orthogonalEdgeStyle;rounded=0;orthogonalLoop=1;jettySize=auto;html=1;exitX=0.75;exitY=0;exitDx=0;exitDy=0;entryX=0.5;entryY=0.962;entryDx=0;entryDy=0;entryPerimeter=0;" parent="WIyWlLk6GJQsqaUBKTNV-1" source="JBzvTZdr12KHgHO6GsRZ-13" target="JBzvTZdr12KHgHO6GsRZ-6" edge="1">
          <mxGeometry relative="1" as="geometry">
            <mxPoint x="450" y="540" as="targetPoint" />
          </mxGeometry>
        </mxCell>
        <mxCell id="JBzvTZdr12KHgHO6GsRZ-13" value="AActor" style="swimlane;fontStyle=1;align=center;verticalAlign=top;childLayout=stackLayout;horizontal=1;startSize=26;horizontalStack=0;resizeParent=1;resizeParentMax=0;resizeLast=0;collapsible=1;marginBottom=0;" parent="WIyWlLk6GJQsqaUBKTNV-1" vertex="1">
          <mxGeometry x="210" y="630" width="186" height="104" as="geometry" />
        </mxCell>
        <mxCell id="JBzvTZdr12KHgHO6GsRZ-14" value="TArray&lt;AActor*&gt; Children;&#xa;void Tick(float DeltaSeconds);" style="text;strokeColor=none;fillColor=none;align=left;verticalAlign=top;spacingLeft=4;spacingRight=4;overflow=hidden;rotatable=0;points=[[0,0.5],[1,0.5]];portConstraint=eastwest;" parent="JBzvTZdr12KHgHO6GsRZ-13" vertex="1">
          <mxGeometry y="26" width="186" height="44" as="geometry" />
        </mxCell>
        <mxCell id="JBzvTZdr12KHgHO6GsRZ-15" value="" style="line;strokeWidth=1;fillColor=none;align=left;verticalAlign=middle;spacingTop=-1;spacingLeft=3;spacingRight=3;rotatable=0;labelPosition=right;points=[];portConstraint=eastwest;" parent="JBzvTZdr12KHgHO6GsRZ-13" vertex="1">
          <mxGeometry y="70" width="186" height="8" as="geometry" />
        </mxCell>
        <mxCell id="JBzvTZdr12KHgHO6GsRZ-16" value="AActor* Owner;(weak)" style="text;strokeColor=none;fillColor=none;align=left;verticalAlign=top;spacingLeft=4;spacingRight=4;overflow=hidden;rotatable=0;points=[[0,0.5],[1,0.5]];portConstraint=eastwest;" parent="JBzvTZdr12KHgHO6GsRZ-13" vertex="1">
          <mxGeometry y="78" width="186" height="26" as="geometry" />
        </mxCell>
        <mxCell id="koClU784cWXa2UPkRBET-0" value="&lt;h1 style=&quot;text-align: center;&quot;&gt;UE的命名规则&lt;/h1&gt;&lt;div&gt;&lt;font color=&quot;#f00000&quot;&gt;模板类&lt;/font&gt;以&lt;font color=&quot;#f0e000&quot;&gt;T&lt;/font&gt;作为前缀&lt;/div&gt;&lt;div&gt;&lt;b&gt;&lt;font color=&quot;#f00000&quot;&gt;TArray，Tmap，Tset UObject&lt;/font&gt;&lt;/b&gt;&lt;font color=&quot;#f00000&quot;&gt;的派生类&lt;/font&gt;都以&lt;font color=&quot;#f0e000&quot;&gt;U&lt;/font&gt;作为前缀&lt;/div&gt;&lt;div&gt;&lt;font color=&quot;#f00000&quot;&gt;AActor派生类&lt;/font&gt;都以&lt;font color=&quot;#f0e000&quot;&gt;A&lt;/font&gt;作为前缀&lt;/div&gt;&lt;div&gt;&lt;font color=&quot;#f00000&quot;&gt;SWidget派生类&lt;/font&gt;都以&lt;font color=&quot;#f0e000&quot;&gt;S&lt;/font&gt;作为前缀&lt;/div&gt;&lt;div&gt;&lt;font color=&quot;#f00000&quot;&gt;抽象接口&lt;/font&gt;以&lt;font color=&quot;#f0e000&quot;&gt;I&lt;/font&gt;作为前缀&lt;/div&gt;&lt;div&gt;&lt;font color=&quot;#f00000&quot;&gt;枚举&lt;/font&gt;以&lt;font color=&quot;#f0e000&quot;&gt;E&lt;/font&gt;作为前缀&lt;/div&gt;&lt;div&gt;&lt;font color=&quot;#f00000&quot;&gt;bool变量&lt;/font&gt;以&lt;font color=&quot;#f0e000&quot;&gt;b&lt;/font&gt;作为前缀&lt;/div&gt;&lt;div&gt;其余的大部分以&lt;font color=&quot;#f0e000&quot;&gt;F&lt;/font&gt;作为前缀&lt;/div&gt;&lt;div&gt;&lt;font color=&quot;#f00000&quot;&gt;typedef&lt;/font&gt;以&lt;font color=&quot;#f0e000&quot;&gt;原型名前缀&lt;/font&gt;作为前缀&lt;/div&gt;&lt;div&gt;在编辑器与C#中，类型名被去掉前缀&lt;/div&gt;" style="text;html=1;strokeColor=none;fillColor=none;spacing=5;spacingTop=-20;whiteSpace=wrap;overflow=hidden;rounded=0;" vertex="1" parent="WIyWlLk6GJQsqaUBKTNV-1">
          <mxGeometry y="969" width="310" height="200" as="geometry" />
        </mxCell>
      </root>
    </mxGraphModel>
  </diagram>
</mxfile>
